<svg width="80" height="80" xmlns="http://www.w3.org/2000/svg" xmlns:xlink="http://www.w3.org/1999/xlink" overflow="hidden"><defs><clipPath id="clip0"><rect x="370" y="321" width="80" height="80"/></clipPath><clipPath id="clip1"><rect x="371" y="322" width="79" height="79"/></clipPath><clipPath id="clip2"><rect x="371" y="322" width="79" height="79"/></clipPath><clipPath id="clip3"><rect x="371" y="322" width="79" height="79"/></clipPath></defs><g clip-path="url(#clip0)" transform="translate(-370 -321)"><g clip-path="url(#clip1)"><g clip-path="url(#clip2)"><g clip-path="url(#clip3)"><path d="M415.438 383.39 405.562 383.39C405.199 383.39 404.904 383.095 404.904 382.731 404.904 382.368 405.199 382.073 405.562 382.073L415.438 382.073C415.801 382.073 416.096 382.368 416.096 382.731 416.096 383.095 415.801 383.39 415.438 383.39Z" fill="#505050" fill-rule="nonzero" fill-opacity="1"/><path d="M415.438 385.529 405.562 385.529C405.199 385.529 404.904 385.234 404.904 384.871 404.904 384.507 405.199 384.212 405.562 384.212L415.438 384.212C415.801 384.212 416.096 384.507 416.096 384.871 416.096 385.234 415.801 385.529 415.438 385.529Z" fill="#505050" fill-rule="nonzero" fill-opacity="1"/><path d="M415.438 387.669 405.562 387.669C405.199 387.669 404.904 387.374 404.904 387.01 404.904 386.647 405.199 386.352 405.562 386.352L415.438 386.352C415.801 386.352 416.096 386.647 416.096 387.01 416.096 387.374 415.801 387.669 415.438 387.669Z" fill="#505050" fill-rule="nonzero" fill-opacity="1"/><path d="M412.146 389.808 408.854 389.808C408.491 389.808 408.196 389.514 408.196 389.15 408.196 388.786 408.491 388.492 408.854 388.492L412.146 388.492C412.509 388.492 412.804 388.786 412.804 389.15 412.804 389.514 412.509 389.808 412.146 389.808Z" fill="#505050" fill-rule="nonzero" fill-opacity="1"/><path d="M424.654 361.006C424.654 353.075 418.131 346.668 410.158 346.856 402.428 347.039 396.221 353.512 396.348 361.243 396.412 365.174 398.08 368.715 400.725 371.241 403.863 374.238 405.562 376.63 405.562 380.969L405.562 381.25 415.438 381.25 415.438 380.771C415.438 376.516 417.126 374.216 420.219 371.294 422.95 368.715 424.654 365.06 424.654 361.006Z" fill="#0F9ED5" fill-rule="nonzero" fill-opacity="1"/><path d="M401.306 355.96C401.222 355.96 401.137 355.939 401.059 355.894 400.823 355.757 400.742 355.455 400.879 355.219 402.991 351.569 406.92 349.301 411.133 349.301 411.406 349.301 411.627 349.522 411.627 349.794 411.627 350.067 411.406 350.288 411.133 350.288 407.272 350.288 403.67 352.367 401.734 355.714 401.642 355.872 401.476 355.96 401.306 355.96Z" fill="#FFFFFF" fill-rule="nonzero" fill-opacity="1"/><path d="M399.789 361.633C399.516 361.633 399.295 361.412 399.295 361.139 399.295 360.107 399.428 359.083 399.69 358.095 399.76 357.832 400.03 357.674 400.294 357.745 400.558 357.815 400.714 358.085 400.644 358.349 400.404 359.254 400.282 360.193 400.282 361.139 400.282 361.412 400.061 361.633 399.789 361.633Z" fill="#FFFFFF" fill-rule="nonzero" fill-opacity="1"/><path d="M414.615 364.462C413.072 364.462 411.817 365.718 411.817 367.26L411.817 369.086 409.183 369.086 409.183 367.26C409.183 365.718 407.928 364.462 406.385 364.462 404.843 364.462 403.587 365.718 403.587 367.26 403.587 368.803 404.843 370.058 406.385 370.058L408.196 370.058 408.196 381.283 409.183 381.283 409.183 370.074 411.817 370.074 411.817 381.283 412.804 381.283 412.804 370.058 414.615 370.058C416.157 370.058 417.413 368.803 417.413 367.26 417.413 365.718 416.157 364.462 414.615 364.462ZM404.575 367.26C404.575 366.262 405.387 365.45 406.385 365.45 407.384 365.45 408.196 366.262 408.196 367.26L408.196 369.071 406.385 369.071C405.387 369.071 404.575 368.259 404.575 367.26ZM414.615 369.071 412.804 369.071 412.804 367.26C412.804 366.262 413.616 365.45 414.615 365.45 415.613 365.45 416.425 366.262 416.425 367.26 416.425 368.259 415.613 369.071 414.615 369.071Z" fill="#FFFFFF" fill-rule="nonzero" fill-opacity="1"/><path d="M410.5 340.598C410.136 340.598 409.842 340.303 409.842 339.94L409.842 336.977C409.842 336.614 410.136 336.319 410.5 336.319 410.864 336.319 411.158 336.614 411.158 336.977L411.158 339.94C411.158 340.303 410.864 340.598 410.5 340.598Z" fill="#0F9ED5" fill-rule="nonzero" fill-opacity="1"/><path d="M395.138 346.961C394.97 346.961 394.801 346.897 394.673 346.768L392.578 344.673C392.32 344.416 392.32 344 392.578 343.742 392.835 343.485 393.251 343.485 393.509 343.742L395.604 345.837C395.861 346.094 395.861 346.511 395.604 346.768 395.475 346.897 395.307 346.961 395.138 346.961Z" fill="#0F9ED5" fill-rule="nonzero" fill-opacity="1"/><path d="M388.775 362.323 385.812 362.323C385.449 362.323 385.154 362.028 385.154 361.665 385.154 361.301 385.449 361.006 385.812 361.006L388.775 361.006C389.139 361.006 389.433 361.301 389.433 361.665 389.433 362.028 389.139 362.323 388.775 362.323Z" fill="#0F9ED5" fill-rule="nonzero" fill-opacity="1"/><path d="M393.043 379.78C392.875 379.78 392.706 379.715 392.578 379.587 392.321 379.33 392.321 378.913 392.578 378.656L394.673 376.561C394.93 376.304 395.347 376.304 395.604 376.561 395.861 376.818 395.861 377.235 395.604 377.492L393.509 379.587C393.38 379.715 393.212 379.78 393.043 379.78Z" fill="#0F9ED5" fill-rule="nonzero" fill-opacity="1"/><path d="M427.957 379.78C427.788 379.78 427.62 379.715 427.491 379.587L425.396 377.492C425.139 377.235 425.139 376.818 425.396 376.561 425.653 376.304 426.07 376.304 426.327 376.561L428.422 378.656C428.679 378.913 428.679 379.33 428.422 379.587 428.294 379.715 428.125 379.78 427.957 379.78Z" fill="#0F9ED5" fill-rule="nonzero" fill-opacity="1"/><path d="M435.188 362.323 432.225 362.323C431.861 362.323 431.567 362.028 431.567 361.665 431.567 361.301 431.861 361.006 432.225 361.006L435.188 361.006C435.551 361.006 435.846 361.301 435.846 361.665 435.846 362.028 435.551 362.323 435.188 362.323Z" fill="#0F9ED5" fill-rule="nonzero" fill-opacity="1"/><path d="M425.862 346.961C425.694 346.961 425.525 346.897 425.396 346.768 425.139 346.511 425.139 346.094 425.396 345.837L427.491 343.742C427.748 343.485 428.165 343.485 428.422 343.742 428.68 344 428.68 344.416 428.422 344.673L426.327 346.768C426.199 346.897 426.03 346.961 425.862 346.961Z" fill="#0F9ED5" fill-rule="nonzero" fill-opacity="1"/></g></g></g></g></svg>