<svg width="21" height="20" viewBox="0 0 21 20" fill="none" xmlns="http://www.w3.org/2000/svg">
<path d="M9.3284 3.65491C9.83325 2.72619 11.1664 2.72619 11.6713 3.65491L13.149 6.37337C13.3448 6.73353 13.6954 6.9836 14.0996 7.0515L17.1548 7.56456C18.224 7.74411 18.6433 9.05683 17.8761 9.82293L15.7634 11.9328C15.4645 12.2313 15.3247 12.6538 15.3866 13.0717L15.8238 16.0225C15.9803 17.0785 14.8941 17.881 13.9306 17.4212L11.0741 16.058C10.7109 15.8847 10.2888 15.8847 9.92556 16.058L7.06906 17.4212C6.10559 17.881 5.01938 17.0785 5.17585 16.0225L5.61307 13.0717C5.67499 12.6538 5.53522 12.2313 5.23631 11.9328L3.12356 9.82293C2.35642 9.05683 2.77572 7.74411 3.8449 7.56456L6.90003 7.0515C7.3043 6.9836 7.65487 6.73352 7.85065 6.37337L9.3284 3.65491Z" stroke="#4F5866" stroke-width="1.5"/>
</svg>
