<svg width="91" height="45" viewBox="0 0 91 45" fill="none" xmlns="http://www.w3.org/2000/svg">
<path d="M11.1852 44.9998H33.8099C36.747 44.9998 39.1279 42.6189 39.1279 39.6818V13.2018C39.1279 12.5977 38.9093 12.014 38.5125 11.5585L29.1906 0.858389C28.7155 0.313036 28.0276 0 27.3044 0H11.1852C8.24815 0 5.86719 2.38096 5.86719 5.31802V39.6818C5.86719 42.6189 8.24815 44.9998 11.1852 44.9998Z" fill="#D6DFEB"/>
<path fill-rule="evenodd" clip-rule="evenodd" d="M27.3906 0.00146484V9.39724C27.3906 11.5583 29.1425 13.3103 31.3037 13.3103H32.5724H39.1297V13.2019C39.1297 12.5978 38.9111 12.0141 38.5143 11.5586L29.1924 0.85843C28.7358 0.334352 28.0828 0.0248184 27.3906 0.00146484Z" fill="#B5C2D1"/>
<rect y="15.8403" width="19.5651" height="19.5651" rx="3.91303" fill="#FF5924"/>
<path d="M3.75 31.408C8.33933 28.147 8.86716 23.07 9.03417 19.8379C9.26237 21.992 11.9412 27.2674 15.8177 27.8548C14.4135 27.642 9.87503 27.5093 3.75 31.408Z" stroke="white" stroke-width="2.34782" stroke-linecap="round"/>
<path d="M62.0602 45H84.685C87.6221 45 90.0031 42.619 90.0031 39.6819V13.2019C90.0031 12.5978 89.7845 12.0141 89.3876 11.5586L80.0657 0.858393C79.5906 0.313038 78.9027 0 78.1794 0H62.0602C59.1232 0 56.7422 2.38097 56.7422 5.31805V39.6819C56.7422 42.619 59.1232 45 62.0602 45Z" fill="#D6DFEB"/>
<path fill-rule="evenodd" clip-rule="evenodd" d="M78.2617 0.00146484V9.39732C78.2617 11.5584 80.0136 13.3104 82.1748 13.3104H83.4435H90.0002V13.2019C90.0002 12.5978 89.7816 12.0141 89.3848 11.5586L80.0629 0.858412C79.6065 0.334491 78.9536 0.0249848 78.2617 0.00146484Z" fill="#B5C2D1"/>
<rect x="50.8672" y="15.8403" width="19.5652" height="19.5652" rx="3.91304" fill="#2454FF"/>
<path d="M56.838 30.0884L56.856 30.1635H56.9331H58.8817H58.9569L58.9762 30.0908L60.6482 23.8028L62.3261 30.0909L62.3454 30.1635H62.4206H64.3266H64.4035L64.4217 30.0888L66.5826 21.2033L66.6121 21.0823H66.4876H64.6787H64.6L64.5831 21.1592L63.3066 26.9602L61.8477 21.1563L61.8291 21.0823H61.7529H59.6162H59.541L59.5216 21.155L57.9985 26.8695L56.7434 21.1592L56.7265 21.0823H56.6479H54.8086H54.6846L54.7134 21.2029L56.838 30.0884Z" fill="white" stroke="white" stroke-width="0.195652"/>
</svg>
