<svg width="7" height="83" viewBox="0 0 7 83" fill="none" xmlns="http://www.w3.org/2000/svg">
<rect x="0.703125" y="28.3655" width="2" height="2" fill="#E0E4EA"/>
<rect x="4.70312" y="28.3655" width="2" height="2" fill="#E0E4EA"/>
<rect x="0.703125" y="32.3655" width="2" height="2" fill="#E0E4EA"/>
<rect x="4.70312" y="32.3655" width="2" height="2" fill="#E0E4EA"/>
<rect x="0.703125" y="36.3655" width="2" height="2" fill="#E0E4EA"/>
<rect x="4.70312" y="36.3655" width="2" height="2" fill="#E0E4EA"/>
<rect x="0.703125" y="40.3655" width="2" height="2" fill="#E0E4EA"/>
<rect x="4.70312" y="40.3655" width="2" height="2" fill="#E0E4EA"/>
<rect x="0.703125" y="44.3655" width="2" height="2" fill="#E0E4EA"/>
<rect x="4.70312" y="44.3655" width="2" height="2" fill="#E0E4EA"/>
<rect x="0.703125" y="48.3655" width="2" height="2" fill="#E0E4EA"/>
<rect x="4.70312" y="48.3655" width="2" height="2" fill="#E0E4EA"/>
<rect x="0.703125" y="52.3655" width="2" height="2" fill="#E0E4EA"/>
<rect x="4.70312" y="52.3655" width="2" height="2" fill="#E0E4EA"/>
<rect x="0.703125" width="2" height="2" fill="#E0E4EA"/>
<rect x="4.70312" width="2" height="2" fill="#E0E4EA"/>
<rect x="0.703125" y="4" width="2" height="2" fill="#E0E4EA"/>
<rect x="4.70312" y="4" width="2" height="2" fill="#E0E4EA"/>
<rect x="0.703125" y="8" width="2" height="2" fill="#E0E4EA"/>
<rect x="4.70312" y="8" width="2" height="2" fill="#E0E4EA"/>
<rect x="0.703125" y="12" width="2" height="2" fill="#E0E4EA"/>
<rect x="4.70312" y="12" width="2" height="2" fill="#E0E4EA"/>
<rect x="0.703125" y="16" width="2" height="2" fill="#E0E4EA"/>
<rect x="4.70312" y="16" width="2" height="2" fill="#E0E4EA"/>
<rect x="0.703125" y="20" width="2" height="2" fill="#E0E4EA"/>
<rect x="4.70312" y="20" width="2" height="2" fill="#E0E4EA"/>
<rect x="0.703125" y="24" width="2" height="2" fill="#E0E4EA"/>
<rect x="4.70312" y="24" width="2" height="2" fill="#E0E4EA"/>
<rect x="0.703125" y="56.3655" width="2" height="2" fill="#E0E4EA"/>
<rect x="4.70312" y="56.3655" width="2" height="2" fill="#E0E4EA"/>
<rect x="0.703125" y="60.3655" width="2" height="2" fill="#E0E4EA"/>
<rect x="4.70312" y="60.3655" width="2" height="2" fill="#E0E4EA"/>
<rect x="0.703125" y="64.3655" width="2" height="2" fill="#E0E4EA"/>
<rect x="4.70312" y="64.3655" width="2" height="2" fill="#E0E4EA"/>
<rect x="0.703125" y="68.3655" width="2" height="2" fill="#E0E4EA"/>
<rect x="4.70312" y="68.3655" width="2" height="2" fill="#E0E4EA"/>
<rect x="0.703125" y="72.3655" width="2" height="2" fill="#E0E4EA"/>
<rect x="4.70312" y="72.3655" width="2" height="2" fill="#E0E4EA"/>
<rect x="0.703125" y="76.3655" width="2" height="2" fill="#E0E4EA"/>
<rect x="4.70312" y="76.3655" width="2" height="2" fill="#E0E4EA"/>
<rect x="0.703125" y="80.3655" width="2" height="2" fill="#E0E4EA"/>
<rect x="4.70312" y="80.3655" width="2" height="2" fill="#E0E4EA"/>
</svg>
