<svg width="16" height="19" viewBox="0 0 16 19" fill="none" xmlns="http://www.w3.org/2000/svg">
<path d="M3.66733 18.6133H13.2311C14.7323 18.6133 15.9492 17.3963 15.9492 15.8952V7.36091C15.9492 7.05214 15.8375 6.75381 15.6347 6.521L10.8701 1.05202C10.6273 0.773278 10.2757 0.613281 9.90604 0.613281H3.66734C2.16616 0.613281 0.949219 1.83022 0.949219 3.3314V15.8952C0.949219 17.3963 2.16616 18.6133 3.66733 18.6133Z" fill="#FF5924"/>
<path fill-rule="evenodd" clip-rule="evenodd" d="M9.94922 0.614258V5.41656C9.94922 6.52113 10.8446 7.41656 11.9492 7.41656H12.5977H15.9492V7.36116C15.9492 7.05239 15.8375 6.75405 15.6347 6.52124L10.8701 1.05226C10.6368 0.784401 10.303 0.626194 9.94922 0.614258Z" fill="#BC411A"/>
<path d="M4.75781 15.1586C7.564 13.1647 7.88674 10.0603 7.98886 8.08398C8.1284 9.40115 9.76641 12.6268 12.1367 12.986C11.2781 12.8559 8.50301 12.7747 4.75781 15.1586Z" stroke="white" stroke-width="1.2" stroke-linecap="round"/>
</svg>
