<svg width="28" height="33" viewBox="0 0 28 33" fill="none" xmlns="http://www.w3.org/2000/svg">
<path d="M8.04341 32.4998H24.132C26.2206 32.4998 27.9137 30.8067 27.9137 28.7181V9.88804C27.9137 9.45846 27.7582 9.04338 27.476 8.71948L20.8472 1.11053C20.5093 0.722725 20.0202 0.500122 19.5059 0.500122H8.04341C5.95484 0.500122 4.26172 2.19325 4.26172 4.28182V28.7181C4.26172 30.8067 5.95484 32.4998 8.04341 32.4998Z" fill="#E9F0F9"/>
<path fill-rule="evenodd" clip-rule="evenodd" d="M19.5664 0.501221V7.18263C19.5664 8.71941 20.8122 9.96521 22.349 9.96521H23.2512H27.9142V9.88813C27.9142 9.45854 27.7587 9.04347 27.4765 8.71956L20.8477 1.11061C20.523 0.737939 20.0586 0.517828 19.5664 0.501221Z" fill="#C2CDDB"/>
<rect x="0.0898438" y="11.7643" width="13.9129" height="13.9129" rx="2.78258" fill="#FF5924"/>
<path d="M2.75391 22.8346C6.01741 20.5156 6.39276 16.9053 6.51152 14.6069C6.67379 16.1388 8.57875 19.8901 11.3354 20.3078C10.3368 20.1565 7.10946 20.0621 2.75391 22.8346Z" stroke="white" stroke-width="1.66955" stroke-linecap="round"/>
</svg>
