<svg width="21" height="20" viewBox="0 0 21 20" fill="none" xmlns="http://www.w3.org/2000/svg">
<path d="M1.78102 11.6409C1.4673 11.0467 1.67949 10.3108 2.26142 9.97481L7.55284 6.91981L12.7799 3.90195C13.3778 3.55677 14.1423 3.76162 14.4874 4.35948L18.2821 10.9321C18.6162 11.5107 18.4362 12.2498 17.8734 12.6099L11.7504 16.5285C11.5492 16.6572 11.3154 16.7257 11.0766 16.7257L5.96961 16.7257L5.21907 16.7257C4.75554 16.7257 4.33007 16.4692 4.11366 16.0592L1.78102 11.6409Z" stroke="#4F5866" stroke-width="1.5"/>
<path d="M5.39453 10.6814L9.40676 11.4324C9.89157 11.5231 10.3701 11.2468 10.534 10.7816L11.8897 6.9314" stroke="#4F5866" stroke-width="1.5" stroke-linecap="round"/>
<path d="M1.89062 16.7239H18.54" stroke="#4F5866" stroke-width="1.5" stroke-linecap="round" stroke-linejoin="round"/>
</svg>
