<svg width="62" height="21" viewBox="0 0 62 21" fill="none" xmlns="http://www.w3.org/2000/svg">
<path d="M7.9375 10.7241H15.4375L13.4375 8.72412" stroke="#4F5866" stroke-width="1.5" stroke-linecap="round" stroke-linejoin="round"/>
<rect y="0.724121" width="62" height="20" rx="10" fill="#1A2029"/>
<path fill-rule="evenodd" clip-rule="evenodd" d="M14.3552 8.97517C14.6806 8.64044 15.2082 8.64044 15.5337 8.97517L17.7559 11.2609C17.9942 11.506 18.0655 11.8747 17.9365 12.195C17.8076 12.5153 17.5037 12.7241 17.1666 12.7241H8.83333C8.3731 12.7241 8 12.3404 8 11.867C8 11.3936 8.3731 11.0098 8.83333 11.0098H15.1548L14.3552 10.1874C14.0297 9.85262 14.0297 9.30991 14.3552 8.97517Z" fill="white"/>
<path d="M28.7 11.2941H27.76V10.6241H30.35V11.2941H29.41V14.0041C29.85 13.9041 30.29 13.7941 30.71 13.6741V14.3441C29.84 14.5941 28.9 14.8041 27.9 14.9741L27.72 14.2941C28.05 14.2541 28.38 14.2041 28.7 14.1441V11.2941ZM32.49 15.5741C32.15 15.5741 31.84 15.3141 31.58 14.7941C31.28 14.1941 31.06 13.3841 30.92 12.3441C30.81 11.4641 30.74 10.3641 30.7 9.05412H27.53V8.35412H30.68C30.66 7.77412 30.66 7.16412 30.66 6.52412H31.36C31.36 7.17412 31.36 7.78412 31.38 8.35412H33.37V9.05412H31.39C31.44 10.7741 31.55 12.0941 31.71 13.0341C31.93 14.1741 32.19 14.7541 32.49 14.7941C32.69 14.7541 32.9 14.1441 33.1 12.9541L33.67 13.4141C33.34 14.8541 32.95 15.5741 32.49 15.5741ZM32.22 6.51412C32.65 6.99412 32.98 7.41412 33.22 7.77412L32.72 8.12412C32.47 7.73412 32.13 7.30412 31.71 6.82412L32.22 6.51412ZM25.62 6.65412C26.26 7.16412 26.79 7.67412 27.23 8.19412L26.74 8.69412C26.34 8.20412 25.8 7.68412 25.12 7.14412L25.62 6.65412ZM24.42 9.61412H26.52V13.9741C26.82 13.6841 27.12 13.3641 27.44 13.0141L27.63 13.7741C27.08 14.3741 26.5 14.9041 25.88 15.3641L25.6 14.7241C25.74 14.6041 25.82 14.4641 25.82 14.3141V10.3041H24.42V9.61412ZM34.5 10.6941H43.49V11.4141H34.5V10.6941ZM48.7 11.2941H47.76V10.6241H50.35V11.2941H49.41V14.0041C49.85 13.9041 50.29 13.7941 50.71 13.6741V14.3441C49.84 14.5941 48.9 14.8041 47.9 14.9741L47.72 14.2941C48.05 14.2541 48.38 14.2041 48.7 14.1441V11.2941ZM52.49 15.5741C52.15 15.5741 51.84 15.3141 51.58 14.7941C51.28 14.1941 51.06 13.3841 50.92 12.3441C50.81 11.4641 50.74 10.3641 50.7 9.05412H47.53V8.35412H50.68C50.66 7.77412 50.66 7.16412 50.66 6.52412H51.36C51.36 7.17412 51.36 7.78412 51.38 8.35412H53.37V9.05412H51.39C51.44 10.7741 51.55 12.0941 51.71 13.0341C51.93 14.1741 52.19 14.7541 52.49 14.7941C52.69 14.7541 52.9 14.1441 53.1 12.9541L53.67 13.4141C53.34 14.8541 52.95 15.5741 52.49 15.5741ZM52.22 6.51412C52.65 6.99412 52.98 7.41412 53.22 7.77412L52.72 8.12412C52.47 7.73412 52.13 7.30412 51.71 6.82412L52.22 6.51412ZM45.62 6.65412C46.26 7.16412 46.79 7.67412 47.23 8.19412L46.74 8.69412C46.34 8.20412 45.8 7.68412 45.12 7.14412L45.62 6.65412ZM44.42 9.61412H46.52V13.9741C46.82 13.6841 47.12 13.3641 47.44 13.0141L47.63 13.7741C47.08 14.3741 46.5 14.9041 45.88 15.3641L45.6 14.7241C45.74 14.6041 45.82 14.4641 45.82 14.3141V10.3041H44.42V9.61412Z" fill="white"/>
</svg>
