<svg width="40" height="44" viewBox="0 0 40 44" fill="none" xmlns="http://www.w3.org/2000/svg">
<path d="M14.2982 34.5521H36.153C38.009 34.5521 39.5137 33.0475 39.5137 31.1915V12.9348C39.5137 12.0358 39.1534 11.1742 38.5135 10.5427L29.0752 1.22929C28.4463 0.608697 27.5983 0.260742 26.7147 0.260742H14.2982C12.4421 0.260742 10.9375 1.76537 10.9375 3.62142V31.1915C10.9375 33.0475 12.4421 34.5521 14.2982 34.5521Z" fill="#C2CDDB"/>
<path d="M9.17318 38.3222H31.028C32.884 38.3222 34.3887 36.8175 34.3887 34.9615V16.7049C34.3887 15.8058 34.0284 14.9442 33.3885 14.3127L23.9502 4.99931C23.3213 4.37872 22.4733 4.03076 21.5897 4.03076H9.17318C7.31713 4.03076 5.8125 5.53539 5.8125 7.39144V34.9615C5.8125 36.8175 7.31713 38.3222 9.17318 38.3222Z" fill="#4F5866"/>
<path d="M3.84896 43.0395H25.7038C27.5598 43.0395 29.0645 41.5348 29.0645 39.6788V21.4221C29.0645 20.5231 28.7042 19.6615 28.0643 19.03L18.626 9.7166C17.9971 9.096 17.149 8.74805 16.2655 8.74805H3.84896C1.99291 8.74805 0.488281 10.2527 0.488281 12.1087V39.6788C0.488281 41.5348 1.99291 43.0395 3.84896 43.0395Z" fill="#2554FF"/>
<path fill-rule="evenodd" clip-rule="evenodd" d="M17.2227 8.76953V17.2347C17.2227 19.0908 18.7273 20.5954 20.5833 20.5954H21.6831H29.0598C29.0299 20.1913 28.8547 19.8101 28.5643 19.5235L18.1352 9.23235C17.885 8.98544 17.5654 8.82484 17.2227 8.76953Z" fill="#9FB4FB" style="mix-blend-mode:multiply"/>
<path d="M19.043 25.5383L10.5125 34.0688" stroke="white" stroke-width="2" stroke-linecap="round"/>
<path d="M19.043 33.9846L10.511 25.4526" stroke="white" stroke-width="2" stroke-linecap="round"/>
</svg>
