<svg width="32" height="33" viewBox="0 0 32 33" fill="none" xmlns="http://www.w3.org/2000/svg">
<path d="M3.75 8.45992C3.75 7.76956 4.30965 7.20992 5 7.20992H10.0293C10.4124 7.20992 10.7743 7.38559 11.0113 7.68657L12.2606 9.27305C12.4977 9.57403 12.8596 9.7497 13.2427 9.7497H21C21.6904 9.7497 22.25 10.3093 22.25 10.9997V22.036C22.25 22.7264 21.6904 23.286 21 23.286H5.00002C4.30966 23.286 3.75002 22.7264 3.75002 22.036L3.75 8.45992Z" fill="white" stroke="#1A2029" stroke-width="1.5"/>
<path d="M14.4964 9.74756L3.91603 9.74756" stroke="#1A2029" stroke-width="1.5" stroke-linecap="round"/>
<path d="M3.91603 7.62427L10.8927 7.62428L12.4444 9.39728L3.91602 9.54541L3.91603 7.62427Z" fill="#1A2029"/>
<ellipse cx="23.5" cy="19.5361" rx="3.5" ry="4.5" fill="white"/>
<path fill-rule="evenodd" clip-rule="evenodd" d="M26.6118 15.0493C24.0734 12.5109 19.9578 12.5109 17.4194 15.0493C14.881 17.5877 14.881 21.7033 17.4194 24.2417C19.9578 26.7801 24.0734 26.7801 26.6118 24.2417C29.1502 21.7033 29.1502 17.5877 26.6118 15.0493ZM22.4951 16.7731C22.4951 16.5087 22.2808 16.2943 22.0164 16.2943C21.752 16.2943 21.5376 16.5087 21.5376 16.7731V19.1669H19.143C18.8786 19.1669 18.6642 19.3813 18.6642 19.6457C18.6642 19.9101 18.8786 20.1245 19.143 20.1245H21.5376V22.5183C21.5376 22.7827 21.752 22.9971 22.0164 22.9971C22.2808 22.9971 22.4951 22.7827 22.4951 22.5183V20.1245H24.8882C25.1527 20.1245 25.367 19.9101 25.367 19.6457C25.367 19.3813 25.1527 19.1669 24.8882 19.1669H22.4951V16.7731Z" fill="#1A2029"/>
</svg>
