<svg width="24" height="24" viewBox="0 0 24 24" fill="none" xmlns="http://www.w3.org/2000/svg">
<path d="M24 12C24 18.6274 18.6274 24 12 24C5.37258 24 0 18.6274 0 12C0 5.37258 5.37258 0 12 0C18.6274 0 24 5.37258 24 12Z" fill="#2454FF" fill-opacity="0.06"/>
<path d="M6.09375 12.6318L6.09375 17C6.09375 17.5523 6.54147 18 7.09375 18L16.9038 18C17.4561 18 17.9038 17.5523 17.9038 17L17.9038 12.6318" stroke="#2454FF" stroke-width="2" stroke-linecap="round" stroke-linejoin="round"/>
<path d="M11.9988 12.7996L11.9988 6.00021M11.9988 6.00021L9.27344 8.58056M11.9988 6.00021L14.7242 8.58056" stroke="#1A2029" stroke-width="2" stroke-linecap="round" stroke-linejoin="round"/>
</svg>
