<svg width="25" height="24" viewBox="0 0 25 24" fill="none" xmlns="http://www.w3.org/2000/svg">
<path d="M24.582 12C24.582 18.6274 19.2094 24 12.582 24C5.95461 24 0.582031 18.6274 0.582031 12C0.582031 5.37258 5.95461 0 12.582 0C19.2094 0 24.582 5.37258 24.582 12Z" fill="#2454FF" fill-opacity="0.12"/>
<path d="M6.67969 12.6318L6.67969 17C6.67969 17.5523 7.1274 18 7.67969 18L17.4898 18C18.0421 18 18.4898 17.5523 18.4898 17L18.4898 12.6318" stroke="#2454FF" stroke-width="2" stroke-linecap="round" stroke-linejoin="round"/>
<path d="M12.5848 12.7996L12.5848 6.00021M12.5848 6.00021L9.85937 8.58056M12.5848 6.00021L15.3102 8.58056" stroke="#1A2029" stroke-width="2" stroke-linecap="round" stroke-linejoin="round"/>
</svg>
